<?xml version="1.0" encoding="UTF-8" standalone="no"?>
<svg
   viewBox="0 0 24 24"
   fill="none"
   stroke="currentColor"
   stroke-width="1.5"
   version="1.1"
   id="svg2"
   sodipodi:docname="settings.svg"
   inkscape:version="1.4.2 (f4327f4, 2025-05-13)"
   xmlns:inkscape="http://www.inkscape.org/namespaces/inkscape"
   xmlns:sodipodi="http://sodipodi.sourceforge.net/DTD/sodipodi-0.dtd"
   xmlns="http://www.w3.org/2000/svg"
   xmlns:svg="http://www.w3.org/2000/svg">
  <defs
     id="defs2" />
  <sodipodi:namedview
     id="namedview2"
     pagecolor="#ffffff"
     bordercolor="#000000"
     borderopacity="0.25"
     inkscape:showpageshadow="2"
     inkscape:pageopacity="0.0"
     inkscape:pagecheckerboard="0"
     inkscape:deskcolor="#d1d1d1"
     inkscape:zoom="33.625"
     inkscape:cx="4.1635688"
     inkscape:cy="8.0743494"
     inkscape:window-width="1858"
     inkscape:window-height="1057"
     inkscape:window-x="1432"
     inkscape:window-y="-8"
     inkscape:window-maximized="1"
     inkscape:current-layer="svg2"
     showgrid="true">
    <inkscape:grid
       id="grid3844"
       units="px"
       originx="0"
       originy="0"
       spacingx="1"
       spacingy="1"
       empcolor="#0099e5"
       empopacity="0.30196078"
       color="#0099e5"
       opacity="0.14901961"
       empspacing="5"
       enabled="true"
       visible="true" />
  </sodipodi:namedview>
  <path
     stroke-linecap="round"
     stroke-linejoin="round"
     d="m 11.049,2.927 c 0.3,-1.14 1.952,-1.14 2.252,0 a 1.724,1.724 0 0 0 2.591,1.066 c 1.012,-0.58 2.198,0.605 1.618,1.618 a 1.724,1.724 0 0 0 1.065,2.59 c 1.141,0.3 1.141,1.953 0,2.253 a 1.724,1.724 0 0 0 -1.066,2.59 c 0.58,1.013 -0.606,2.199 -1.618,1.618 a 1.724,1.724 0 0 0 -2.59,1.065 c -0.3,1.141 -1.954,1.141 -2.253,0 A 1.724,1.724 0 0 0 8.458,14.661 C 7.445,15.241 6.259,14.056 6.839,13.043 a 1.724,1.724 0 0 0 -1.065,-2.59 c -1.14,-0.3 -1.14,-1.952 0,-2.253 A 1.724,1.724 0 0 0 6.84,5.61 C 6.26,4.597 7.445,3.412 8.458,3.992 a 1.724,1.724 0 0 0 2.59,-1.065 z"
     id="path1"
     style="display:none" />
  <path
     stroke-linecap="round"
     stroke-linejoin="round"
     d="m 15,9.9776951 a 3.0000001,3.0000001 0 1 1 -6,0 3.0000001,3.0000001 0 0 1 6,0 z"
     id="path2" />
  <path
     sodipodi:type="star"
     style="fill:none;fill-opacity:1;stroke:#000000;stroke-width:1.2;stroke-linecap:round;stroke-linejoin:round;stroke-dasharray:none;stroke-dashoffset:0;stroke-opacity:1;paint-order:normal"
     id="path3844"
     inkscape:flatsided="false"
     sodipodi:sides="8"
     sodipodi:cx="12.074349"
     sodipodi:cy="9.2788105"
     sodipodi:r1="7.7388592"
     sodipodi:r2="4.6850162"
     sodipodi:arg1="0.77996344"
     sodipodi:arg2="1.1726625"
     inkscape:rounded="-2.4286129e-17"
     inkscape:randomized="2.7755576e-17"
     d="M 17.576208,14.72119 13.890725,13.597393 12.116408,17.017555 10.305021,13.616881 6.6319702,14.780669 7.7557666,11.095186 4.3356045,9.3208689 7.736279,7.5094825 6.5724907,3.8364313 10.257974,4.9602277 12.032291,1.5400656 13.843677,4.9407401 17.516729,3.7769518 16.392932,7.4624353 19.813094,9.2367521 16.41242,11.048139 Z"
     transform="rotate(0.72013122,-35.278466,4.8438996)" />
</svg>
